<svg width="283" height="182" viewBox="0 0 283 182" fill="none" xmlns="http://www.w3.org/2000/svg">
<path d="M48.317 180.901C47.9359 180.901 47.5605 180.809 47.2226 180.632C46.8848 180.456 46.5946 180.2 46.3767 179.888C46.1589 179.575 46.0198 179.214 45.9713 178.836C45.9229 178.458 45.9665 178.074 46.0985 177.717L51.899 162.001H61.124L50.3398 179.776C50.1271 180.121 49.8294 180.405 49.4753 180.602C49.1211 180.799 48.7223 180.902 48.317 180.901Z" fill="black"/>
<path d="M130.433 180.901C130.814 180.901 131.19 180.809 131.527 180.632C131.865 180.456 132.155 180.2 132.373 179.888C132.591 179.575 132.73 179.214 132.779 178.836C132.827 178.458 132.783 178.074 132.651 177.717L126.851 162.001H117.626L128.41 179.776C128.623 180.121 128.921 180.405 129.275 180.602C129.629 180.799 130.028 180.902 130.433 180.901Z" fill="black"/>
<path d="M139.55 115.302H39.2002V167.727H139.55V115.302Z" fill="#2A29C2"/>
<path d="M132.8 122.052H45.9502V160.977H132.8V122.052Z" fill="#B5B5C9"/>
<path d="M132.913 141.575H45.9502" stroke="#2A29C2" stroke-miterlimit="10"/>
<path d="M89.3751 134.713C90.7421 134.713 91.8501 133.604 91.8501 132.238C91.8501 130.871 90.7421 129.763 89.3751 129.763C88.0082 129.763 86.9001 130.871 86.9001 132.238C86.9001 133.604 88.0082 134.713 89.3751 134.713Z" fill="#272727"/>
<path d="M89.3751 153.613C90.7421 153.613 91.8501 152.505 91.8501 151.138C91.8501 149.771 90.7421 148.663 89.3751 148.663C88.0082 148.663 86.9001 149.771 86.9001 151.138C86.9001 152.505 88.0082 153.613 89.3751 153.613Z" fill="#272727"/>
<path d="M70.3626 93.0876C72.1644 93.0876 73.6251 91.627 73.6251 89.8251C73.6251 88.0233 72.1644 86.5626 70.3626 86.5626C68.5608 86.5626 67.1001 88.0233 67.1001 89.8251C67.1001 91.627 68.5608 93.0876 70.3626 93.0876Z" fill="#F1AFAB"/>
<path d="M87.2376 93.0876C89.0394 93.0876 90.5001 91.627 90.5001 89.8251C90.5001 88.0233 89.0394 86.5626 87.2376 86.5626C85.4358 86.5626 83.9751 88.0233 83.9751 89.8251C83.9751 91.627 85.4358 93.0876 87.2376 93.0876Z" fill="#F1AFAB"/>
<path d="M78.8001 86.5626C78.362 86.5626 77.9297 86.6619 77.5356 86.8529C77.3388 86.2002 76.9429 85.6253 76.4032 85.2087C75.8636 84.7921 75.2072 84.5547 74.5259 84.5296C73.8446 84.5044 73.1726 84.6929 72.6037 85.0686C72.0349 85.4444 71.5977 85.9885 71.3534 86.625C71.1091 87.2614 71.0698 87.9583 71.2412 88.6182C71.4125 89.278 71.7858 89.8678 72.3089 90.305C72.8319 90.7422 73.4786 91.005 74.1584 91.0565C74.8382 91.108 75.5171 90.9457 76.1001 90.5924C76.3005 91.0838 76.6309 91.5114 77.0557 91.8294C77.4806 92.1474 77.984 92.3438 78.512 92.3976C79.04 92.4513 79.5726 92.3605 80.0529 92.1347C80.5332 91.9089 80.943 91.5566 81.2384 91.1157C81.5338 90.6749 81.7037 90.1619 81.7299 89.6318C81.756 89.1018 81.6375 88.5746 81.3869 88.1067C81.1364 87.6389 80.7633 87.248 80.3076 86.976C79.8519 86.704 79.3308 86.5611 78.8001 86.5626Z" fill="#F1AFAB"/>
<path d="M84.6342 86.5716C84.41 86.0246 84.0413 85.5488 83.5677 85.1951C83.094 84.8414 82.5331 84.623 81.945 84.5633C81.3568 84.5036 80.7635 84.6048 80.2284 84.8562C79.6933 85.1076 79.2366 85.4996 78.907 85.9904C78.5775 86.4812 78.3874 87.0523 78.3573 87.6427C78.3271 88.2331 78.4579 88.8206 78.7358 89.3424C79.0136 89.8642 79.428 90.3007 79.9347 90.6053C80.4414 90.9099 81.0213 91.0711 81.6125 91.0716C81.726 91.0713 81.8393 91.0653 81.9522 91.0536C82.2182 91.4773 82.5883 91.8256 83.0272 92.0654C83.4662 92.3052 83.9593 92.4284 84.4595 92.4233C84.9596 92.4182 85.4501 92.2849 85.8841 92.0362C86.318 91.7874 86.6809 91.4316 86.9381 91.0026C87.1954 90.5736 87.3383 90.0859 87.3532 89.5859C87.3682 89.086 87.2547 88.5905 87.0236 88.1469C86.7925 87.7033 86.4514 87.3264 86.0331 87.0522C85.6148 86.778 85.1332 86.6156 84.6342 86.5806V86.5716Z" fill="#F1AFAB"/>
<path d="M77.6752 87.9126C79.0421 87.9126 80.1502 86.8046 80.1502 85.4376C80.1502 84.0707 79.0421 82.9626 77.6752 82.9626C76.3083 82.9626 75.2002 84.0707 75.2002 85.4376C75.2002 86.8046 76.3083 87.9126 77.6752 87.9126Z" fill="#F1AFAB"/>
<path d="M85.8877 82.0626C86.8197 82.0626 87.5752 81.3071 87.5752 80.3751C87.5752 79.4431 86.8197 78.6876 85.8877 78.6876C84.9557 78.6876 84.2002 79.4431 84.2002 80.3751C84.2002 81.3071 84.9557 82.0626 85.8877 82.0626Z" fill="#F1AFAB"/>
<path d="M65.3743 89.7126L69.8743 115.363H73.0625L69.5008 89.7126H65.3743Z" fill="#2A29C2"/>
<path d="M88.0252 89.7126L84.4612 115.363H87.6494L92.1494 89.7126H88.0252Z" fill="#2A29C2"/>
<path d="M82.4 89.7126L80.717 115.363H84.461L88.025 89.7126H82.4Z" fill="#3D3BFF"/>
<path d="M69.5007 89.7126L73.0625 115.363H76.8065L75.1257 89.7126H69.5007Z" fill="#3D3BFF"/>
<path d="M75.1257 89.7126L76.8065 115.363H80.717L82.4 89.7126H75.1257Z" fill="#2A29C2"/>
<path d="M118.825 97.8892H160.925V180.903H100.625V116.087C100.626 111.261 102.543 106.632 105.957 103.219C109.37 99.8064 113.999 97.8892 118.825 97.8892Z" fill="#3D3BFF"/>
<path d="M165.4 52.8756H224.852C229.679 52.8762 234.308 54.794 237.72 58.2071C241.133 61.6203 243.05 66.2492 243.05 71.0759V180.901H147.2V71.0759C147.2 66.2488 149.118 61.6196 152.531 58.2063C155.944 54.7931 160.573 52.8756 165.4 52.8756Z" fill="#3D3BFF"/>
<path d="M144.025 120.056H224.852C229.678 120.057 234.307 121.974 237.719 125.387C241.132 128.8 243.049 133.428 243.05 138.254V180.901H125.825V138.254C125.826 133.428 127.743 128.799 131.156 125.386C134.57 121.973 139.199 120.056 144.025 120.056Z" fill="#3D3BFF"/>
<path d="M182.413 140.259H133.331" stroke="#F1AFAB" stroke-miterlimit="10"/>
<path d="M125.825 138.254V180.901" stroke="#CA7358" stroke-miterlimit="10"/>
<path d="M243.05 97.6213H204.994" stroke="#F1AFAB" stroke-miterlimit="10"/>
<path d="M140 0.349365H39.6501V68.2994H140V0.349365Z" fill="#B5B5C9"/>
<path d="M133.25 7.09937H46.4001V61.5494H133.25V7.09937Z" fill="#272727"/>
<path d="M109.477 40.9034C110.251 40.9777 111.022 41.0587 111.794 41.1419L113.5 36.9367L115.117 41.5312C115.95 41.6347 116.78 41.7434 117.608 41.8574L114.769 33.8002L117.608 26.7869H115.203L115.178 26.8207L113.644 30.6097L112.294 26.7847H109.922L112.375 33.7417L109.477 40.9034Z" fill="#F1AFAB"/>
<path d="M107.679 40.7392V26.7892H105.305V40.5502C106.097 40.6102 106.888 40.6754 107.679 40.7459" fill="#F1AFAB"/>
<path d="M89.8453 39.9584C90.4858 39.9584 91.1263 39.9621 91.7668 39.9696V34.8419H94.6175V32.6594H91.7668V28.9716H95.0495V26.7869H89.375V39.9606H89.8385" fill="#F1AFAB"/>
<path d="M82.4741 40.1001C83.2661 40.0731 84.0491 40.0484 84.8501 40.0304V28.9716H87.0686V26.7869H80.2556V28.9716H82.4741V40.1001Z" fill="#F1AFAB"/>
<path d="M64.319 41.5626V33.2511L67.1292 41.2251C67.9932 41.1291 68.8595 41.0376 69.728 40.9506V26.7756H67.451V35.3976L64.4157 26.7869H62.042V41.8619H62.0555C62.807 41.7584 63.563 41.6594 64.319 41.5626Z" fill="#F1AFAB"/>
<path d="M77.9676 28.9716V26.7869H72.2976V40.7144C74.1786 40.5524 76.0671 40.4159 77.9631 40.3049V38.1201C76.8666 38.1831 75.7731 38.2581 74.6826 38.3451V34.8441H77.5334V32.6594H74.6826V28.9716H77.9676Z" fill="#F1AFAB"/>
<path d="M99.7566 38.0166V26.7869H97.3716V40.1001C99.2691 40.1706 101.158 40.2666 103.039 40.3881V38.2034C101.947 38.1314 100.853 38.0699 99.7566 38.0189" fill="#F1AFAB"/>
<path d="M169.925 87.0126C169.925 87.0126 148.775 91.7376 137.975 97.8126C126.869 104.059 125.825 112.825 118.893 133.878C115.851 143.103 114.323 149.727 112.687 154.263L131.563 163.175C132.463 161.506 133.264 159.863 133.925 158.338C133.925 158.338 142.579 157.953 143.404 146.372C144.021 137.721 144.318 131.317 147.337 124.855L198.93 86.9136L169.925 87.0126Z" fill="#272727"/>
<path d="M104.945 162.361C104.85 162.376 104.756 162.394 104.659 162.408C97.9745 163.423 95.1845 164.723 94.0842 167.754L121.984 180.759C122.303 180.908 122.663 180.941 123.003 180.853C123.344 180.765 123.643 180.562 123.849 180.277C123.967 180.116 124.052 179.932 124.099 179.737C124.145 179.543 124.152 179.341 124.12 179.143C124.088 178.945 124.017 178.756 123.911 178.586C123.805 178.416 123.666 178.269 123.503 178.153L105.125 169.813C105.559 167.341 105.497 164.808 104.945 162.361Z" fill="#272727"/>
<path d="M131.563 163.175L112.687 154.263C111.722 156.94 110.719 158.893 109.344 160.232C108.201 161.357 106.797 162.032 104.945 162.361C105.497 164.808 105.559 167.341 105.125 169.813L123.512 178.153C123.441 178.103 123.366 178.058 123.287 178.021L122.612 177.699C123.706 176.124 125.422 173.554 127.258 170.584C128.716 168.256 130.226 165.686 131.563 163.175Z" fill="#EAA58B"/>
<path d="M133.77 158.657L114.125 149.45" stroke="#F5EBDD" stroke-linecap="round" stroke-linejoin="round"/>
<path d="M209.637 96.1048L208.85 87.4333H193.325C193.325 87.4333 167.225 93.6794 156.13 99.0006C145.087 104.293 146.412 116.584 148.494 138.101C149.556 149.07 150.881 156.603 150.811 161.938H171.286C171.399 160.207 171.474 158.38 171.511 156.459C171.511 156.459 179.499 152.677 175.336 140.414C172.548 132.202 170.141 126.763 170.141 119.631H188.15C191.148 119.631 194.113 119.007 196.856 117.797C199.599 116.588 202.06 114.82 204.082 112.607C206.104 110.393 207.642 107.782 208.599 104.941C209.555 102.1 209.909 99.0904 209.637 96.1048Z" fill="#272727"/>
<path d="M145.949 171.95C140.747 175.487 138.911 177.8 139.199 180.894L170.004 180.853C170.334 180.839 170.646 180.699 170.874 180.46C171.103 180.222 171.23 179.904 171.23 179.574C171.23 179.244 171.103 178.926 170.874 178.688C170.646 178.45 170.334 178.309 170.004 178.295H149.45C149.45 178.295 148.325 174.497 145.949 171.95Z" fill="#272727"/>
<path d="M150.811 161.938C150.773 164.975 150.283 167.302 149.032 169.138C148.357 170.111 147.498 170.942 146.503 171.583L145.949 171.95C148.327 174.49 149.45 178.295 149.45 178.295H168.908C169.647 175.278 170.212 172.22 170.6 169.138C170.879 166.987 171.122 164.577 171.293 161.938H150.811Z" fill="#EAA58B"/>
<path d="M170.375 93.5376C165.403 95.1261 159.535 97.0701 155.75 98.9376C147.108 103.197 146.005 111.502 146.944 125.33" stroke="white" stroke-linecap="round" stroke-linejoin="round"/>
<path d="M169.925 120.164H164.343" stroke="white" stroke-linecap="round" stroke-linejoin="round"/>
<path d="M171.5 156.839H150.575" stroke="#F5EBDD" stroke-miterlimit="10" stroke-linecap="round"/>
<path d="M200.95 97.8892H243.05V180.903H182.75V116.087C182.751 111.261 184.668 106.632 188.082 103.219C191.495 99.8064 196.124 97.8892 200.95 97.8892Z" fill="#3D3BFF"/>
<path d="M182.3 119.64V180.633" stroke="#F1AFAB" stroke-miterlimit="10"/>
<path d="M24.0125 148.213C18.8375 148.213 14.6165 145.11 14.4568 141.238V180.838H33.5818V141.238C33.4085 145.11 29.1943 148.213 24.0125 148.213Z" fill="#3D3BFF"/>
<path d="M14.8123 171.876C21.0898 171.201 28.5665 166.813 27.1625 156.425C26.0375 148.1 17.825 150.463 22.55 158.338C25.3265 162.966 29.8918 166.118 33.1835 167.929" stroke="white" stroke-miterlimit="10" stroke-linecap="round"/>
<path d="M14.7561 162.516C18.4979 165.076 25.1264 170.958 27.6531 180.437" stroke="white" stroke-miterlimit="10" stroke-linecap="round"/>
<path d="M14.7336 175.183C17.1884 175.91 20.3361 177.476 22.7054 180.464" stroke="white" stroke-miterlimit="10" stroke-linecap="round"/>
<path d="M21.5871 143.299C19.9941 146.073 17.619 148.317 14.7583 149.749" stroke="white" stroke-miterlimit="10" stroke-linecap="round"/>
<path d="M24.0127 148.213C29.1877 148.213 33.4087 145.11 33.5684 141.238H14.4502C14.6167 145.11 18.8309 148.213 24.0127 148.213Z" fill="#272727"/>
<path d="M18.6125 106.475L23.7875 145.4" stroke="#272727" stroke-miterlimit="10" stroke-linecap="round"/>
<path d="M16.9565 122.162L23.009 145.074" stroke="#272727" stroke-miterlimit="10" stroke-linecap="round"/>
<path d="M35.7318 131.303C40.0416 129.461 43.1227 127.002 42.6137 125.811C42.1046 124.621 38.1982 125.149 33.8883 126.992C29.5785 128.835 26.4974 131.294 27.0064 132.484C27.5155 133.675 31.4219 133.146 35.7318 131.303Z" fill="#272727"/>
<path d="M20.5647 136.212C21.0036 135.048 17.1093 132.502 11.8665 130.525C6.62379 128.548 2.01794 127.889 1.57907 129.053C1.1402 130.217 5.03451 132.763 10.2772 134.74C15.52 136.716 20.1258 137.375 20.5647 136.212Z" fill="#272727"/>
<path d="M27.7219 123.808C30.7561 121.522 32.7461 119.046 32.1667 118.276C31.5872 117.507 28.6578 118.737 25.6236 121.022C22.5894 123.308 20.5994 125.784 21.1788 126.553C21.7583 127.323 24.6877 126.093 27.7219 123.808Z" fill="#272727"/>
<path d="M30.5375 111.2L24.6875 147.2" stroke="#272727" stroke-miterlimit="10" stroke-linecap="round"/>
<path d="M20.8962 114.931C20.3557 114.035 19.6076 113.282 18.715 112.735C17.8223 112.189 16.8114 111.865 15.7675 111.792C14.7235 111.718 13.6772 111.897 12.7168 112.313C11.7564 112.728 10.9101 113.369 10.2493 114.181C9.58848 114.992 9.13254 115.951 8.91997 116.975C8.70739 118 8.7444 119.061 9.02789 120.068C9.31137 121.076 9.833 122 10.5488 122.764C11.2645 123.527 12.1535 124.107 13.1405 124.455C13.4706 122.321 14.3631 120.315 15.7262 118.641C17.0894 116.967 18.8739 115.686 20.8962 114.931Z" fill="#2A29C2"/>
<path d="M17.9129 118.976C16.7242 116.266 14.5918 114.08 11.9121 112.825" stroke="white" stroke-miterlimit="10" stroke-linecap="round"/>
<path d="M16.9251 119.959C14.864 117.815 12.0853 116.506 9.11987 116.281" stroke="white" stroke-miterlimit="10" stroke-linecap="round"/>
<path d="M13.1406 124.455C14.4082 124.902 15.7828 124.946 17.0766 124.582C18.3703 124.218 19.5201 123.463 20.3687 122.421C21.2174 121.379 21.7235 120.1 21.8179 118.759C21.9124 117.419 21.5905 116.082 20.8964 114.931C18.8741 115.686 17.0895 116.967 15.7264 118.641C14.3632 120.315 13.4707 122.321 13.1406 124.455Z" fill="#F1AFAB"/>
<path d="M11.2596 102.245C11.2369 101.199 11.4662 100.163 11.928 99.224C12.3898 98.2851 13.0706 97.471 13.913 96.8504C14.7554 96.2298 15.7347 95.821 16.7683 95.6582C17.8019 95.4955 18.8595 95.5838 19.8518 95.9155C20.8442 96.2472 21.7422 96.8127 22.4701 97.5643C23.198 98.3159 23.7345 99.2315 24.0344 100.234C24.3342 101.236 24.3886 102.296 24.1929 103.324C23.9973 104.352 23.5573 105.318 22.9101 106.14C21.4893 104.514 19.661 103.296 17.6133 102.612C15.5656 101.927 13.3724 101.801 11.2596 102.245Z" fill="#2A29C2"/>
<path d="M15.9463 104.065C15.4989 101.14 16.1307 98.1513 17.7238 95.6571" stroke="white" stroke-miterlimit="10" stroke-linecap="round"/>
<path d="M17.303 104.367C17.8984 101.453 19.545 98.861 21.929 97.0836" stroke="white" stroke-miterlimit="10" stroke-linecap="round"/>
<path d="M22.91 106.14C22.0785 107.196 20.9409 107.97 19.6529 108.355C18.3648 108.741 16.9893 108.719 15.7142 108.292C14.4392 107.866 13.3269 107.056 12.5296 105.974C11.7322 104.892 11.2886 103.589 11.2595 102.245C13.3724 101.801 15.5655 101.927 17.6132 102.612C19.661 103.296 21.4893 104.514 22.91 106.14Z" fill="#F1AFAB"/>
<path d="M26.9241 102.702C27.5674 101.876 28.3998 101.217 29.3512 100.781C30.3026 100.345 31.345 100.144 32.3904 100.195C33.4358 100.246 34.4536 100.548 35.3578 101.075C36.262 101.602 37.0261 102.339 37.5856 103.224C38.1452 104.109 38.4837 105.115 38.5726 106.158C38.6616 107.2 38.4984 108.249 38.0967 109.216C37.6951 110.182 37.0668 111.038 36.265 111.711C35.4631 112.384 34.5112 112.854 33.4896 113.081C33.4158 110.924 32.7687 108.825 31.6148 107.001C30.4609 105.177 28.8418 103.693 26.9241 102.702Z" fill="#2A29C2"/>
<path d="M29.4058 107.074C30.9066 104.522 33.284 102.602 36.095 101.674" stroke="white" stroke-miterlimit="10" stroke-linecap="round"/>
<path d="M30.2654 108.167C32.5674 106.284 35.4821 105.315 38.4531 105.445" stroke="white" stroke-miterlimit="10" stroke-linecap="round"/>
<path d="M33.4895 113.081C32.1779 113.373 30.8081 113.253 29.5673 112.738C28.3265 112.222 27.2751 111.336 26.5568 110.2C25.8385 109.065 25.4882 107.735 25.554 106.393C25.6197 105.051 26.0981 103.762 26.924 102.702C28.8417 103.693 30.4608 105.177 31.6147 107.001C32.7686 108.825 33.4157 110.924 33.4895 113.081Z" fill="#F1AFAB"/>
<path d="M282.396 180.172C282.375 180.226 282.35 180.279 282.319 180.329C282.35 180.279 282.376 180.227 282.396 180.172Z" fill="#CA7358"/>
<path d="M271.672 175.215L265.775 180.84H280.85C281.644 180.84 282.108 180.655 282.315 180.338C281.154 180.554 274.422 176.79 271.672 175.215Z" fill="#F1AFAB"/>
<path d="M282.396 180.172C283.147 178.054 275.45 171.622 275.45 171.622L271.672 175.222C274.422 176.797 281.154 180.561 282.315 180.343C282.348 180.288 282.375 180.231 282.396 180.172Z" fill="#FFDEDC"/>
<path d="M281.3 159.913C281.075 161.038 270.725 162.838 270.725 162.838L270.077 158.545L269.825 158.563L271.504 171.388C271.504 171.388 281.975 162.163 281.3 159.913Z" fill="#F1AFAB"/>
<path d="M281.3 159.913C280.715 157.964 271.706 158.443 270.077 158.545L270.725 162.838C270.725 162.838 281.075 161.038 281.3 159.913Z" fill="#FFDEDC"/>
<path d="M268.855 159.787L269.244 151.684" stroke="#272727" stroke-linecap="round" stroke-linejoin="round"/>
<path d="M267.274 158.9L265.17 148.566" stroke="#272727" stroke-linecap="round" stroke-linejoin="round"/>
<path d="M232.925 180.901L222.399 166.876L227.3 161.701C226.85 160.126 224.825 153.151 222.125 150.901C219.425 148.651 216.95 148.651 215.6 149.101L215.559 149.115C215.226 149.238 214.933 149.45 214.711 149.728C214.49 150.005 214.348 150.338 214.302 150.69C214.256 151.042 214.306 151.401 214.449 151.726C214.591 152.052 214.819 152.332 215.109 152.537L217.625 154.738C217.625 154.738 212 159.013 212 163.738C212 167.032 213.777 168.719 215.539 169.588L210.875 176.113C210.875 176.113 206.15 176.788 196.925 174.088C194.115 173.264 191.075 171.838 188.235 170.528C188.235 173.593 186.827 176.047 184.741 177.854C189.525 179.74 195.613 180.901 200.338 180.901H232.925Z" fill="#F1B0AB"/>
<path d="M204.575 176C205.358 177.51 206.319 179.058 208.013 180.428" stroke="#272727" stroke-miterlimit="10" stroke-linecap="round"/>
<path d="M226.625 160.925L224.825 162.275" stroke="#272727" stroke-miterlimit="10" stroke-linecap="round"/>
<path d="M188.236 170.528C183.511 168.361 179.348 166.582 177.8 168.688C175.156 172.288 179.008 175.591 184.741 177.854C186.827 176.047 188.247 173.593 188.236 170.528Z" fill="#FFDEDC"/>
<path d="M274.1 165.981C274.1 165.027 275.301 163.776 276.246 163.391C274.485 158.563 267.426 154.364 260.15 158.113C260.15 158.113 259.25 153.613 256.775 151.813C254.46 150.127 252.05 149.961 250.25 150.636L250.196 150.656C249.871 150.786 249.585 150.996 249.364 151.267C249.143 151.538 248.994 151.861 248.932 152.205C248.87 152.55 248.896 152.904 249.009 153.235C249.121 153.566 249.316 153.863 249.575 154.099L252.725 156.988L251.15 160.086C249.545 158.632 247.66 157.521 245.61 156.821C245.433 165.238 234.381 168.946 228.875 167.113C226.94 164.413 225.34 163.027 224.931 162.696L224.825 162.786C224.825 162.786 220.1 159.688 215.825 162.838C215.825 162.838 213.575 157.663 210.875 155.586C208.591 153.829 204.125 153.786 203 154.911L202.966 154.945C202.706 155.21 202.51 155.531 202.39 155.882C202.271 156.234 202.233 156.608 202.278 156.977C202.323 157.346 202.451 157.699 202.651 158.012C202.852 158.325 203.12 158.588 203.436 158.783L206.6 160.761C206.6 160.761 198.5 172.911 209.3 180.901H266.675C275.288 180.901 277.308 173.991 277.115 168.449C276.096 168.184 274.1 167.47 274.1 165.981Z" fill="#F1AFAB"/>
<path d="M228.875 167.113C234.381 168.946 245.433 165.238 245.611 156.821C243.348 156.022 240.933 155.753 238.55 156.036C232.025 156.803 225.793 161.958 224.931 162.696C225.34 163.027 226.94 164.401 228.875 167.113Z" fill="#FFDEDC"/>
<path d="M274.1 165.981C274.1 167.47 276.096 168.184 277.115 168.456C277.071 166.841 276.814 165.24 276.35 163.693C276.319 163.594 276.28 163.497 276.247 163.398C275.302 163.776 274.1 165.027 274.1 165.981Z" fill="#272727"/>
<path d="M272.293 166.519L275.493 166.046" stroke="#272727" stroke-linecap="round" stroke-linejoin="round"/>
<path d="M260.722 158.225C261.637 161.915 262.765 167.072 263.197 170.375" stroke="#272727" stroke-linecap="round" stroke-linejoin="round"/>
<path d="M250.813 152.825L249.976 154.078" stroke="#272727" stroke-linecap="round" stroke-linejoin="round"/>
<path d="M252.388 154.175L251.506 155.496" stroke="#272727" stroke-linecap="round" stroke-linejoin="round"/>
<path d="M204.013 156.875L203.167 158.144" stroke="#272727" stroke-linecap="round" stroke-linejoin="round"/>
<path d="M205.813 158L204.899 159.368" stroke="#272727" stroke-linecap="round" stroke-linejoin="round"/>
<path d="M250.808 159.946C246.715 167.425 243.336 175.357 249.735 180.604" stroke="#272727" stroke-linecap="round" stroke-linejoin="round"/>
<path d="M231.125 172.4C230.225 168.35 227.455 163.297 223.925 161.825C221.225 160.7 218.525 160.925 216.05 162.275C216.05 162.275 214.981 159.982 214.122 158.727" stroke="#272727" stroke-miterlimit="10" stroke-linecap="round"/>
<path d="M270.583 163.902C270.583 163.902 271.258 166.008 272.293 166.519C272.293 166.519 271.56 167.569 271.438 169.603" stroke="#272727" stroke-linecap="round" stroke-linejoin="round"/>
<path d="M242.375 156.088C242.375 156.088 240.575 159.238 237.65 159.013C234.725 158.788 234.95 154.513 238.325 152.038C239.749 151.2 241.435 150.929 243.05 151.277C245.926 151.905 247.609 157.696 247.609 157.696C247.609 157.696 244.625 156.313 242.375 156.088Z" fill="#F1AFAB"/>
<path d="M267.8 138.191L271.504 135.928L269.857 141.688L274.213 139.1" stroke="#F1AFAB" stroke-linecap="round" stroke-linejoin="round"/>
<path d="M275.891 128.847L279.79 128.536L276.118 132.499L280.513 132.193" stroke="#F1AFAB" stroke-linecap="round" stroke-linejoin="round"/>
<path d="M237.301 156.857L237.297 158.563" stroke="#272727" stroke-linecap="round" stroke-linejoin="round"/>
<path d="M239.36 156.661L239.355 158.351" stroke="#272727" stroke-linecap="round" stroke-linejoin="round"/>
<path d="M215.852 151.315L215.038 152.186" stroke="#272727" stroke-linecap="round" stroke-linejoin="round"/>
<path d="M217.445 152.494L216.475 153.532" stroke="#272727" stroke-linecap="round" stroke-linejoin="round"/>
<path d="M135.343 66.1866L128.075 61.1714L127.762 60.9464C125.839 60.0464 120.616 60.3051 120.88 58.2036C120.936 57.7536 121.465 57.4139 122.299 57.1799L111.738 49.9101C111.347 49.6422 110.866 49.5392 110.4 49.6234C109.934 49.7077 109.52 49.9724 109.247 50.3601L108.122 51.9779C108.685 52.4677 109.047 53.1475 109.141 53.8876C109.234 54.6277 109.051 55.3762 108.628 55.9903C108.204 56.6044 107.57 57.041 106.845 57.2169C106.12 57.3927 105.355 57.2954 104.698 56.9436L103.411 58.8089C103.142 59.1999 103.039 59.6811 103.123 60.1479C103.207 60.6148 103.472 61.0295 103.861 61.3019L127.463 77.5784C127.854 77.847 128.335 77.9504 128.802 77.8662C129.269 77.7819 129.684 77.5168 129.956 77.1284L132.013 74.1471L135.802 68.6751C136.068 68.2834 136.169 67.8024 136.083 67.3366C135.997 66.8708 135.731 66.4576 135.343 66.1866ZM121.663 70.3626C120.706 70.3626 119.771 70.0789 118.975 69.5473C118.18 69.0158 117.56 68.2603 117.193 67.3764C116.827 66.4924 116.731 65.5198 116.918 64.5814C117.105 63.643 117.565 62.781 118.242 62.1045C118.919 61.428 119.781 60.9672 120.719 60.7806C121.657 60.5939 122.63 60.6897 123.514 61.0559C124.398 61.422 125.153 62.042 125.685 62.8375C126.216 63.6331 126.5 64.5684 126.5 65.5251C126.5 66.8079 125.99 68.038 125.083 68.9451C124.176 69.8522 122.945 70.362 121.663 70.3626ZM132.35 69.5459L129.538 73.5959C129.415 73.771 129.227 73.8906 129.017 73.9285C128.806 73.9664 128.589 73.9197 128.413 73.7984C128.237 73.6761 128.116 73.489 128.078 73.2782C128.04 73.0673 128.086 72.8498 128.208 72.6734L131.023 68.6234C131.083 68.5359 131.161 68.4613 131.25 68.4037C131.34 68.3461 131.44 68.3068 131.545 68.2879C131.649 68.269 131.757 68.2709 131.861 68.2935C131.965 68.3161 132.064 68.359 132.151 68.4197C132.239 68.4805 132.313 68.5578 132.371 68.6474C132.428 68.7369 132.468 68.837 132.487 68.9418C132.505 69.0465 132.504 69.154 132.481 69.2581C132.458 69.3621 132.415 69.4607 132.355 69.5481L132.35 69.5459Z" fill="#3D3BFF"/>
<path d="M121.663 70.3626C124.334 70.3626 126.5 68.1968 126.5 65.5251C126.5 62.8534 124.334 60.6876 121.663 60.6876C118.991 60.6876 116.825 62.8534 116.825 65.5251C116.825 68.1968 118.991 70.3626 121.663 70.3626Z" fill="white"/>
<path d="M109.175 54.2751C109.175 53.8411 109.082 53.4122 108.902 53.0173C108.722 52.6225 108.459 52.2711 108.131 51.9868L104.707 56.9526C105.146 57.1896 105.638 57.3133 106.138 57.3126C106.943 57.3126 107.716 56.9925 108.285 56.4229C108.855 55.8533 109.175 55.0807 109.175 54.2751Z" fill="white"/>
<path d="M132.141 68.4164C131.964 68.2954 131.747 68.249 131.536 68.2873C131.325 68.3256 131.138 68.4456 131.016 68.6212L128.201 72.6712C128.079 72.8476 128.033 73.0651 128.071 73.276C128.109 73.4868 128.23 73.6739 128.406 73.7962C128.582 73.9175 128.799 73.9642 129.01 73.9263C129.221 73.8884 129.408 73.7688 129.531 73.5937L132.343 69.5437C132.466 69.3673 132.513 69.1495 132.475 68.9381C132.437 68.7267 132.317 68.5391 132.141 68.4164Z" fill="#272727"/>
<path d="M124.25 75.3126C124.25 75.3126 122.225 77.5626 120.2 75.5376C120.2 75.5376 117.725 76.2126 116.825 74.1876C116.825 74.1876 114.8 75.0876 113.9 73.0626C113.842 72.9321 112.73 73.5486 111.65 72.1626C110.075 70.1376 109.175 64.5126 110.525 64.2876C112.843 63.9006 113.824 68.2476 113.864 68.1126C114.37 66.4003 115.248 64.9626 116.15 64.9626C117.725 64.9626 117.95 66.5376 117.95 66.5376C117.95 66.5376 118.902 65.2663 120.2 65.6376C121.775 66.0876 121.325 68.1126 121.325 68.1126C121.325 68.1126 122.77 67.1541 123.575 68.5626C124.475 70.1376 122.675 72.1626 122.9 74.4126L124.25 75.3126Z" fill="#F1AFAB"/>
<path d="M121.195 67.7616C120.234 69.4401 118.72 72.6936 119.674 75.2091" stroke="white" stroke-linecap="round" stroke-linejoin="round"/>
<path d="M117.763 66.2001C117.154 67.6401 115.876 71.1321 116.427 73.9468" stroke="white" stroke-linecap="round" stroke-linejoin="round"/>
<path d="M113.614 67.55C113.317 68.99 113.099 70.9093 113.482 72.662" stroke="white" stroke-linecap="round" stroke-linejoin="round"/>
<path d="M198.5 34.1376C201.2 33.2376 204.35 29.4126 202.1 26.2626C199.119 22.0866 194 27.6126 194 27.6126C191.832 26.0311 190.186 23.8371 189.275 21.3126C188.6 21.5376 186.575 21.7626 185 21.3126C185 21.3126 184.325 23.1126 183.875 26.2626C183.814 26.6946 183.742 27.1109 183.663 27.5114C183.663 27.5114 181.625 27.3876 181.4 28.2876C181.121 29.3991 182.905 30.5939 182.905 30.5939C182.208 33.1071 181.627 35.0399 182.525 37.2876C183.317 39.2699 185 41.5626 190.4 40.8876L190.092 43.2501H206.195C206.285 42.3074 206.391 41.1846 206.503 39.9719C204.676 39.3576 200.104 37.5261 198.5 34.1376Z" fill="#F1AFAB"/>
<path d="M200.3 13.8876C193.775 10.9626 187.7 15.4626 187.7 15.4626C187.7 15.4626 182.152 13.8651 181.85 17.4876C181.625 20.1876 185 21.3126 185 21.3126C186.575 21.7626 188.6 21.5376 189.275 21.3126C190.186 23.837 191.832 26.0311 194 27.6126C194 27.6126 199.119 22.0866 202.1 26.2626C204.35 29.4126 201.2 33.2376 198.5 34.1376C200.104 37.5261 204.676 39.3576 206.503 39.9719C206.899 35.6811 207.374 30.2474 207.5 27.6126C207.705 23.3174 207.275 17.0174 200.3 13.8876Z" fill="#3D3BFF"/>
<path d="M155.525 63.3877C155.525 63.3877 139.775 58.8877 133.7 57.5377C130.006 56.7164 124.781 56.4937 122.295 57.1889C121.46 57.4139 120.931 57.7604 120.875 58.2127C120.612 60.3142 125.825 60.0532 127.758 60.9554L135.343 66.1867C135.731 66.459 135.996 66.8737 136.08 67.3406C136.165 67.8074 136.061 68.2887 135.793 68.6797L132.022 74.1472C137.825 77.1542 144.1 79.1464 150.575 80.0376C156.544 80.8634 163.789 77.5424 168.976 74.4869L160.275 60.1252C157.478 62.0332 155.525 63.3877 155.525 63.3877Z" fill="#F1AFAB"/>
<path d="M206.195 43.2501H190.092L189.725 46.0626C189.725 46.0626 181.816 45.8961 176.225 49.4376C172 52.1129 164.957 56.9031 160.275 60.1139L168.976 74.4869C171.335 73.1044 173.606 71.5767 175.775 69.9126L169.925 87.0126H208.85L205.925 46.0626C205.925 46.0626 206.035 44.9489 206.195 43.2501Z" fill="#272727"/>
<path d="M189.275 46.6251L188.938 49.3251" stroke="white" stroke-linecap="round" stroke-linejoin="round"/>
<path d="M178.588 60.5751L175.55 69.5751" stroke="white" stroke-linecap="round" stroke-linejoin="round"/>
<path d="M184.741 32.6752C185.112 32.9002 186.507 33.0869 187.072 32.0137" stroke="white" stroke-linecap="round" stroke-linejoin="round"/>
<path d="M187.475 27.3876C187.848 27.3876 188.15 27.0854 188.15 26.7126C188.15 26.3398 187.848 26.0376 187.475 26.0376C187.102 26.0376 186.8 26.3398 186.8 26.7126C186.8 27.0854 187.102 27.3876 187.475 27.3876Z" fill="black"/>
<path d="M199.175 28.9626L196.7 30.5376" stroke="white" stroke-linecap="round" stroke-linejoin="round"/>
<path d="M193.069 43.6956L192.706 46.6138" stroke="white" stroke-linecap="round" stroke-linejoin="round"/>
<path d="M196.441 43.6956L196.081 46.6138" stroke="white" stroke-linecap="round" stroke-linejoin="round"/>
<path d="M199.814 43.6956L199.454 46.6138" stroke="white" stroke-linecap="round" stroke-linejoin="round"/>
<path d="M190.564 41.2836C191.638 41.0946 193.132 40.7009 194.338 39.8751" stroke="white" stroke-linecap="round" stroke-linejoin="round"/>
<path d="M207.325 75.0876L207.725 83.4126C207.725 83.4126 188.76 88.7271 182.282 93.5871C179.357 95.7809 175.757 99.9074 174.425 101.638C173.093 103.368 167.612 111.313 169.925 111.538C172.238 111.763 175.804 106.774 175.804 106.774C175.804 106.774 173.525 112.888 174.2 114.913C174.875 116.938 176.968 115.54 176.968 115.54C178.925 117.838 180.662 115.302 180.662 115.302C184.1 117.838 187.597 105.379 187.597 105.379C189.493 104.452 191.187 103.156 192.578 101.568C192.578 101.568 211.843 102.331 219.425 96.0126C223.221 92.8491 225.095 84.4206 225.169 75.0876H207.325Z" fill="#F1AFAB"/>
<path d="M222.125 53.7126C220.458 48.6299 214.925 46.0626 211.55 46.0626H205.925L207.325 75.0876H225.169C225.226 67.8246 224.193 60.0149 222.125 53.7126Z" fill="#272727"/>
<path d="M207.822 74.8851L207.163 61.0251" stroke="white" stroke-linecap="round" stroke-linejoin="round"/>
<path d="M208.083 82.8388L211.438 81.9501" stroke="white" stroke-linecap="round" stroke-linejoin="round"/>
<path d="M175.276 107.164C175.982 105.274 177.06 102.472 177.913 100.625" stroke="white" stroke-linecap="round" stroke-linejoin="round"/>
<path d="M181.063 102.2C178.651 107.395 177.238 113.225 176.788 115.331" stroke="white" stroke-linecap="round" stroke-linejoin="round"/>
<path d="M184.438 104C182.894 107.553 181.47 112.289 180.696 115.048" stroke="white" stroke-linecap="round" stroke-linejoin="round"/>
</svg>
